<svg height="512pt" viewBox="0 -9 512.00004 512" width="512pt" xmlns="http://www.w3.org/2000/svg"><path d="m85.78125 174.425781-19.429688-110.613281h-29.148437c-14.8125 0-26.820313-12.007812-26.820313-26.820312s12.007813-26.820313 26.820313-26.820313h51.8125c13.085937 0 24.257813 9.441406 26.441406 22.34375l50.085938 295.894531h271.785156c14.8125 0 26.820313 12.007813 26.820313 26.820313s-12.007813 26.820312-26.820313 26.820312h-294.445313c-13.085937 0-24.261718-9.441406-26.445312-22.34375l-17.335938-104.269531" fill="#e0b8ff"/><path d="m252.714844 416.109375c-9.207032-26.453125-38.117188-40.433594-64.570313-31.226563-26.453125 9.207032-40.4375 38.117188-31.226562 64.570313 9.207031 26.453125 38.113281 40.433594 64.570312 31.226563 26.453125-9.207032 40.433594-38.117188 31.226563-64.570313zm0 0" fill="#999"/><path d="m223.214844 432.785156c0 10.152344-8.226563 18.382813-18.378906 18.382813-10.152344 0-18.382813-8.230469-18.382813-18.382813s8.230469-18.382812 18.382813-18.382812c10.152343 0 18.378906 8.230468 18.378906 18.382812zm0 0" fill="#e0b8ff"/><path d="m428.71875 416.117188c-9.207031-26.453126-38.117188-40.4375-64.570312-31.230469-26.453126 9.210937-40.4375 38.117187-31.230469 64.570312 9.210937 26.457031 38.117187 40.4375 64.574219 31.230469 26.453124-9.207031 40.433593-38.117188 31.226562-64.570312zm0 0" fill="#999"/><path d="m399.222656 432.785156c0 10.152344-8.226562 18.382813-18.378906 18.382813s-18.382812-8.230469-18.382812-18.382813 8.230468-18.382812 18.382812-18.382812 18.378906 8.230468 18.378906 18.382812zm0 0" fill="#e0b8ff"/><path d="m510.15625 80.035156c-1.90625-2.714844-5.011719-4.332031-8.328125-4.332031h-101.59375c-5.617187 0-10.171875 4.554687-10.171875 10.171875s4.554688 10.171875 10.171875 10.171875h8.066406l-12.527343 39.703125-7.714844 24.457031h-77.265625v-64.160156h7.652343c5.617188 0 10.171876-4.554687 10.171876-10.171875s-4.554688-10.171875-10.171876-10.171875h-185.574218l-7.597656-44.886719c-3.023438-17.855468-18.363282-30.816406-36.472657-30.816406h-51.808593c-20.398438 0-36.992188 16.59375-36.992188 36.992188 0 20.398437 16.59375 36.992187 36.992188 36.992187h20.609374l17.949219 102.199219c.972657 5.53125 6.246094 9.230468 11.777344 8.261718 5.53125-.972656 9.230469-6.246093 8.257813-11.777343l-19.429688-110.613281c-.851562-4.863282-5.078125-8.414063-10.015625-8.414063h-29.148437c-9.179688 0-16.652344-7.46875-16.652344-16.648437 0-9.179688 7.46875-16.648438 16.652344-16.648438h51.808593c8.152344 0 15.058594 5.832031 16.417969 13.871094l9.007812 53.207031c.007813.050781.007813.101563.015626.152344l14.308593 84.503906 12.617188 74.527344 14.136719 83.503906c.824218 4.894531 5.0625 8.472656 10.027343 8.472656h271.78125c9.179688 0 16.652344 7.46875 16.652344 16.652344 0 9.179687-7.46875 16.648437-16.652344 16.648437h-231.484375c-.457031-.007812-.914062-.003906-1.371094 0h-61.589843c-8.152344 0-15.054688-5.835937-16.410157-13.84375l-17.335937-104.269531c-.921875-5.539062-6.160156-9.292969-11.703125-8.363281-5.539062.921875-9.285156 6.160156-8.363281 11.703125l17.339843 104.296875c3.023438 17.855469 18.363282 30.816406 36.472657 30.816406h16.570312c-14.226562 15.972656-19.636719 38.984375-12.121093 60.578125 5.347656 15.363281 16.355468 27.71875 30.996093 34.800781 8.394531 4.058594 17.402344 6.105469 26.460938 6.105469 6.742187 0 13.507812-1.132812 20.0625-3.414062 31.710937-11.039063 48.527343-45.816407 37.492187-77.523438-2.679687-7.699219-6.785156-14.640625-12.050781-20.546875h85.167969c-14.226563 15.972656-19.636719 38.984375-12.121094 60.578125 8.738281 25.109375 32.359375 40.878907 57.558594 40.878907 6.625 0 13.359375-1.089844 19.960937-3.386719 31.710938-11.039063 48.527344-45.816407 37.492188-77.523438-2.722657-7.820312-6.894531-14.730469-12.105469-20.546875h11.082031c20.394531 0 36.992188-16.59375 36.992188-36.988281 0-20.398437-16.59375-36.992187-36.992188-36.992187h-263.1875l-9.46875-55.945313h277.183594c4.28125 0 8.105469-2.679687 9.5625-6.707031l29.59375-81.746094 30.597656-84.503906c1.125-3.121094.664063-6.589844-1.238281-9.304688zm-116.195312 391.042969c-21.117188 7.347656-44.273438-3.847656-51.625-24.964844-7.351563-21.113281 3.847656-44.273437 24.964843-51.625 4.394531-1.527343 8.878907-2.253906 13.292969-2.253906 16.777344 0 32.511719 10.5 38.328125 27.21875 7.351563 21.117187-3.847656 44.273437-24.960937 51.625zm-171.6875-74.796875c9.75 4.714844 17.082031 12.945312 20.640624 23.171875 7.351563 21.117187-3.847656 44.273437-24.960937 51.625-10.230469 3.5625-21.234375 2.925781-30.984375-1.789063-9.75-4.714843-17.078125-12.945312-20.640625-23.175781-7.347656-21.113281 3.851563-44.273437 24.964844-51.625 4.257812-1.480469 8.648437-2.230469 13.03125-2.265625h.574219c5.949218.035156 11.863281 1.394532 17.375 4.058594zm68.179687-154.328125h-58.144531l-9.511719-61.402344h67.65625zm0-81.746094h-70.804687l-9.941407-64.160156h80.746094zm-101.328125-64.160156 9.9375 64.164063h-51.886719l-10.859375-64.164063zm-38.503906 84.503906h51.589844l9.511718 61.402344h-50.710937zm160.171875 0h70.847656l-11.960937 37.914063-7.414063 23.488281h-51.472656zm123.710937 61.402344h-50.90625l11.960938-37.914063 7.410156-23.488281h53.765625zm29.59375-81.746094h-54.710937l12.527343-39.703125 7.714844-24.457031h57.699219zm0 0"/><path d="m94.1875 226.082031.691406-.164062c5.46875-1.277344 8.867188-6.75 7.585938-12.21875-1.277344-5.46875-6.746094-8.863281-12.21875-7.585938l-.691406.160157c-5.46875 1.277343-8.867188 6.75-7.589844 12.21875 1.097656 4.691406 5.277344 7.859374 9.894531 7.859374.769531 0 1.546875-.089843 2.328125-.269531zm0 0"/><path d="m359.335938 95.390625c.765624 0 1.542968-.085937 2.324218-.269531l.691406-.160156c5.46875-1.277344 8.867188-6.75 7.589844-12.21875-1.28125-5.46875-6.75-8.867188-12.222656-7.589844l-.691406.164062c-5.46875 1.277344-8.867188 6.75-7.589844 12.21875 1.097656 4.691406 5.277344 7.855469 9.898438 7.855469zm0 0"/><path d="m176.070312 432.785156c0 15.742188 12.808594 28.550782 28.550782 28.550782 15.742187 0 28.554687-12.808594 28.554687-28.550782 0-15.742187-12.808593-28.550781-28.554687-28.550781s-28.550782 12.804687-28.550782 28.550781zm36.761719 0c0 4.527344-3.683593 8.210938-8.210937 8.210938s-8.210938-3.683594-8.210938-8.210938 3.683594-8.210937 8.210938-8.210937 8.210937 3.683593 8.210937 8.210937zm0 0"/><path d="m380.628906 404.230469c-15.742187 0-28.550781 12.808593-28.550781 28.554687 0 15.742188 12.808594 28.550782 28.550781 28.550782 15.746094 0 28.554688-12.808594 28.554688-28.550782 0-15.746094-12.808594-28.554687-28.554688-28.554687zm0 36.765625c-4.527344 0-8.210937-3.683594-8.210937-8.210938s3.683593-8.210937 8.210937-8.210937 8.210938 3.683593 8.210938 8.210937-3.683594 8.210938-8.210938 8.210938zm0 0"/></svg>